<svg id="Group_3197" data-name="Group 3197" xmlns="http://www.w3.org/2000/svg" width="16.855" height="16.855" viewBox="0 0 16.855 16.855">
  <g id="Group_3196" data-name="Group 3196">
    <path id="Path_2899" data-name="Path 2899" d="M87.224,341.333a1.686,1.686,0,1,0,1.686,1.686A1.678,1.678,0,0,0,87.224,341.333Z" transform="translate(-82.167 -327.849)" fill="#fff"/>
    <path id="Path_2900" data-name="Path 2900" d="M5.984,9.271h6.279A1.691,1.691,0,0,0,13.737,8.4l3.013-5.47a.815.815,0,0,0,.105-.4.843.843,0,0,0-.843-.843H3.552L2.752,0H0V1.686H1.686l3.03,6.392L3.578,10.143a1.713,1.713,0,0,0-.206.813,1.685,1.685,0,0,0,1.686,1.686H15.17V10.956H5.415a.209.209,0,0,1-.211-.211.2.2,0,0,1,.025-.1Z" fill="#fff"/>
    <path id="Path_2901" data-name="Path 2901" d="M300.557,341.333a1.686,1.686,0,1,0,1.686,1.686A1.678,1.678,0,0,0,300.557,341.333Z" transform="translate(-287.073 -327.849)" fill="#fff"/>
  </g>
</svg>
