<svg xmlns="http://www.w3.org/2000/svg" width="18.759" height="22.51" viewBox="0 0 18.759 22.51">
  <g id="Group_47" data-name="Group 47" transform="translate(-250.219 -1593.147)">
    <path id="Path_75" data-name="Path 75" d="M268.039,1596.9h-2.907a4.7,4.7,0,0,0-4.6-3.751H258.66a4.7,4.7,0,0,0-4.6,3.751h-2.907a.937.937,0,0,0-.938.937h0a.938.938,0,0,0,.938.938h.938v12.193a4.7,4.7,0,0,0,4.689,4.689h5.627a4.7,4.7,0,0,0,4.69-4.69v-12.192h.938a.938.938,0,1,0,0-1.876Zm-9.379-1.876h1.876a2.82,2.82,0,0,1,2.653,1.876h-7.182a2.82,2.82,0,0,1,2.653-1.875Zm6.567,15.943a2.813,2.813,0,0,1-2.813,2.814h-5.628a2.814,2.814,0,0,1-2.814-2.813v-12.193h11.255Z" transform="translate(0 0)" fill="#707070"/>
    <path id="Path_76" data-name="Path 76" d="M270.553,1628.357a.938.938,0,0,0,.938-.938h0v-5.627a.938.938,0,0,0-.938-.938h0a.937.937,0,0,0-.938.937h0v5.627a.937.937,0,0,0,.937.938Z" transform="translate(-12.831 -18.328)" fill="#707070"/>
    <path id="Path_77" data-name="Path 77" d="M281.636,1628.357a.938.938,0,0,0,.938-.938h0v-5.627a.938.938,0,0,0-.938-.938h0a.938.938,0,0,0-.938.937h0v5.627a.937.937,0,0,0,.937.938Z" transform="translate(-20.162 -18.328)" fill="#707070"/>
  </g>
</svg>
